<svg width="306" height="279" viewBox="0 0 306 279" fill="none" xmlns="http://www.w3.org/2000/svg">
<path d="M150.165 0.102854C147.19 0.424494 143.531 1.44972 141.119 2.67597C139.953 3.25894 126.485 11.0386 116.594 16.8482C115.328 17.592 112.292 19.361 109.86 20.7682C100.17 26.3969 89.7775 32.4477 84.3298 35.644C82.7819 36.5486 79.9876 38.1769 78.098 39.2624C71.9467 42.8005 67.3432 45.5746 66.1773 46.439C65.5541 46.9014 64.167 48.1477 63.1016 49.2131C59.2218 53.113 56.5884 58.1386 55.3621 63.9884C55.0003 65.7373 54.9802 67.4662 54.9802 109.52C54.9802 157.485 54.8998 154.289 56.2265 158.47C57.7342 163.194 59.7646 166.511 63.3026 170.029C65.8355 172.542 67.7452 173.929 71.8662 176.261C73.3136 177.085 77.1934 179.316 80.5103 181.246C83.8272 183.176 88.2095 185.729 90.26 186.915C92.3104 188.101 96.4716 190.513 99.5071 192.282C108.573 197.549 123.53 206.233 129.661 209.791C132.817 211.621 136.395 213.691 137.601 214.415C142.969 217.591 145.642 218.556 150.366 219.079C153.904 219.481 157.965 219.019 161.483 217.832C163.674 217.109 164.88 216.526 168.257 214.556C169.645 213.752 173.846 211.299 177.605 209.128C183.857 205.49 189.204 202.394 199.215 196.564C201.266 195.358 207.136 191.961 212.282 188.985C240.084 172.883 238.093 174.049 240.043 172.602C245.411 168.642 249.492 162.028 250.818 155.113C251.16 153.344 251.18 150.751 251.18 109.822C251.18 74.5221 251.14 66.1193 250.919 64.893C250.135 60.5308 248.245 55.9676 245.833 52.5501C244.184 50.2585 241.35 47.3838 239.42 46.0772C237.852 45.0117 235.339 43.5442 217.609 33.2317C211.759 29.8344 204.603 25.6732 201.728 23.9846C196.401 20.8687 189.285 16.7276 182.43 12.7674C177.706 10.0335 173.806 7.74178 169.403 5.14857C163.935 1.91207 161.443 0.927055 157.101 0.263674C155.271 -0.0177603 151.934 -0.0780677 150.165 0.102854ZM157.965 21.9944C163.875 23.482 169.202 28.1257 171.514 33.7946C172.64 36.5687 172.961 38.3377 172.961 41.6747C172.941 44.2478 172.861 44.9715 172.439 46.6199C170.63 53.3743 165.323 58.8221 158.669 60.772C151.452 62.8828 143.511 60.7117 138.446 55.2439C135.149 51.6857 133.561 48.1477 133.038 43.1824C132.696 39.7851 133.48 35.7646 135.149 32.4276C138.023 26.6582 144.034 22.3563 150.407 21.4718C152.336 21.2104 155.834 21.4517 157.965 21.9944ZM160.377 67.4259C165.443 68.0893 169.604 69.2955 173.987 71.4062C183.777 76.1102 191.134 84.5934 194.652 95.2477C195.516 97.8209 196.18 100.575 195.979 100.756C195.939 100.796 194.592 100.756 192.984 100.655C183.093 100.092 177.505 99.8914 176.278 100.092C173.042 100.595 169.886 102.947 168.298 106.003C167.896 106.807 167.896 106.807 167.695 106.304C167.594 106.023 166.468 102.726 165.182 98.9667C160.056 83.8094 159.734 83.0255 157.804 80.9147C156.88 79.9096 156.196 79.3869 155.03 78.824C153.563 78.1003 153.422 78.0601 151.492 78.0601C149.723 78.0601 149.321 78.1205 148.356 78.5828C146.949 79.2462 145.22 80.8142 144.376 82.2214C143.813 83.1863 142.305 86.5233 139.511 93.137C137.983 96.7554 136.656 99.7708 136.516 99.9115C136.455 99.9919 133.862 100.153 130.766 100.253C117.981 100.716 110.141 100.917 110.041 100.816C109.98 100.756 110.182 99.6904 110.483 98.4239C113.076 87.5686 120.092 78.1607 129.661 72.6928C135.551 69.3357 142.305 67.4662 149.964 67.0239C152.276 66.9033 158.045 67.1043 160.377 67.4259ZM153.321 82.2012C155.271 83.1461 156.377 85.1764 158.608 91.7499C163.011 104.776 167.031 116.154 167.232 116.154C167.293 116.154 168.197 114.506 169.243 112.476C172.338 106.465 173.424 105.118 175.836 104.274C176.922 103.872 177.284 103.852 180.822 103.972C188.179 104.234 205.326 105.058 219.117 105.802C227.58 106.284 230.414 106.445 236.807 106.907C238.294 107.008 239.742 107.108 240.003 107.108C240.264 107.108 240.445 107.148 240.405 107.189C240.345 107.269 234.897 107.671 229.168 108.013C228.223 108.073 226.836 108.154 226.052 108.214C222.775 108.435 208.06 109.159 195.195 109.721C192.702 109.822 189.948 109.963 189.064 110.023C188.179 110.063 185.244 110.164 182.53 110.244L177.605 110.385L177.002 111.028C176.68 111.39 175.313 113.843 173.987 116.456C172.66 119.089 171.172 121.783 170.69 122.426C168.78 125.019 165.966 125.321 163.835 123.19C162.327 121.682 162.006 120.798 153.643 95.8508C152.698 93.0365 151.854 90.6443 151.773 90.5639C151.713 90.4835 151.251 91.3479 150.768 92.4736C150.286 93.6194 149.643 95.0869 149.341 95.7503C149.04 96.4137 148.095 98.5847 147.25 100.575C144.657 106.686 143.612 108.154 140.958 109.46L139.431 110.224L132.937 110.184C129.359 110.164 123.027 110.003 118.846 109.822C114.684 109.641 109.096 109.42 106.442 109.319C103.789 109.199 99.8087 109.018 97.5974 108.917C95.3861 108.817 92.3506 108.676 90.8631 108.616C87.8477 108.475 77.9171 107.973 75.3239 107.812C74.4193 107.751 72.2884 107.611 70.5998 107.51C68.8911 107.39 67.1824 107.309 66.8004 107.309C66.3984 107.309 66.1169 107.269 66.1572 107.229C66.2778 107.108 82.0381 106.163 89.9585 105.802C91.2852 105.741 93.0542 105.661 93.8784 105.601C98.0597 105.339 105.055 105.058 115.388 104.696C118.765 104.595 122.524 104.455 123.731 104.394C124.957 104.354 127.852 104.254 130.163 104.193C135.913 104.033 138.104 103.912 138.526 103.671C139.189 103.329 139.833 102.223 141.019 99.4693C141.662 97.9817 142.446 96.1725 142.788 95.4488C143.109 94.7251 143.632 93.5591 143.934 92.8354C147.21 85.1161 147.733 84.0507 148.798 83.0053C150.085 81.7188 151.733 81.4374 153.321 82.2012ZM158.005 129.744C165.061 131.513 170.469 137.021 172.519 144.499C172.901 145.946 172.982 146.69 172.982 149.223C172.961 151.856 172.901 152.479 172.439 154.148C171.373 157.987 169.564 161.083 166.87 163.656C164.317 166.089 161.583 167.657 158.246 168.561C156.538 169.044 155.935 169.104 153.181 169.104C150.386 169.124 149.864 169.064 148.075 168.561C144.094 167.456 141.36 165.827 138.606 162.973C135.229 159.455 133.52 155.615 133.098 150.73C132.455 142.79 136.596 135.211 143.733 131.372C147.874 129.14 153.201 128.537 158.005 129.744ZM160.84 175.235C171.293 176.763 178.952 180.482 185.566 187.257C187.214 188.945 190.591 193.167 190.571 193.529C190.571 193.589 186.189 196.182 180.862 199.278C175.535 202.354 169.182 206.052 166.75 207.5C164.317 208.927 161.604 210.395 160.719 210.756C155.633 212.827 149.14 212.666 144.557 210.334C144.054 210.093 139.752 207.62 134.988 204.866C130.244 202.112 123.932 198.454 120.977 196.745C118.021 195.056 115.609 193.549 115.609 193.448C115.589 193.026 118.705 189.126 120.574 187.196C127.952 179.678 136.154 176.12 149.261 174.773C151.17 174.572 158.226 174.853 160.84 175.235Z" fill="#006A75"/>
<path d="M131.369 245.132C126.866 246.117 123.168 249.273 121.318 253.655C120.353 255.947 119.991 257.776 119.871 260.992C119.79 263.586 119.831 264.309 120.213 266.098C120.976 269.878 122.163 272.27 124.313 274.541C127.409 277.778 132.214 279.406 136.998 278.823C140.777 278.341 143.451 277.115 145.602 274.863C147.411 272.953 148.798 270.3 149.08 268.169L149.22 267.124L145.863 267.164L142.506 267.224L142.044 268.39C141.34 270.119 140.335 271.204 138.747 271.988C137.481 272.612 137.28 272.652 135.289 272.652C133.339 272.652 133.078 272.612 131.832 272.009C129.44 270.883 128.113 269.154 127.208 265.978C126.846 264.671 126.766 263.927 126.766 261.495C126.786 258.862 126.826 258.419 127.309 257.012C128.274 254.198 129.761 252.429 131.993 251.404C132.837 251.001 133.299 250.941 135.189 250.941C137.199 250.941 137.501 251.001 138.546 251.504C140.355 252.389 141.622 253.977 142.406 256.309C142.506 256.63 142.848 256.67 145.843 256.67H149.16V256.087C149.16 255.122 148.235 252.449 147.451 251.142C146.587 249.715 144.557 247.584 144.175 247.725C144.034 247.765 143.954 247.745 144.034 247.644C144.195 247.343 141.984 246.096 140.215 245.493C138.807 245.011 138.244 244.931 135.691 244.89C133.601 244.83 132.375 244.91 131.369 245.132Z" fill="black"/>
<path d="M0.0804098 245.192C0.0402049 245.232 0 246.539 0 248.067V250.841H5.02561H10.0512V264.711V278.582L13.529 278.542L16.9866 278.482L17.0469 264.651L17.0871 250.841H22.1127H27.1383V248.026V245.212H25.6909C13.6898 245.132 0.140717 245.132 0.0804098 245.192Z" fill="black"/>
<path d="M58.1363 250.077L58.1966 253.152L56.4276 253.213L54.6787 253.273V255.866V258.459L56.3874 258.52L58.1162 258.58L58.1564 266.018C58.1966 273.195 58.2167 273.496 58.659 274.582C59.6239 276.974 61.594 278.381 64.6294 278.803C66.2175 279.024 68.7102 278.823 69.8762 278.381C70.4792 278.14 70.4792 277.878 69.9365 275.104L69.4942 272.933L68.871 273.074C67.1422 273.456 65.715 273.034 65.333 272.029C65.2124 271.747 65.132 268.651 65.132 264.993V258.48H67.5443H69.9566V255.866V253.253H67.5443H65.132V250.137V247.021H61.594H58.0559L58.1363 250.077Z" fill="black"/>
<path d="M293.858 250.077C293.898 252.027 293.837 253.153 293.717 253.253C293.596 253.313 292.772 253.374 291.887 253.354H290.279V255.907V258.46L292.048 258.52L293.797 258.58L293.898 266.42C294.018 275.185 293.978 274.984 295.486 276.632C297.295 278.582 300.592 279.306 304.251 278.582C305.899 278.24 305.899 278.26 305.497 276.23C305.316 275.265 305.075 274.139 304.954 273.737L304.753 273.014L303.668 273.195C302.843 273.335 302.441 273.315 301.858 273.074C300.592 272.551 300.532 272.23 300.532 264.912V258.48H302.944H305.356V255.967V253.474L303.004 253.414L300.632 253.354L300.572 250.177L300.511 247.021H297.154H293.797L293.858 250.077Z" fill="black"/>
<path d="M83.8071 253.052C76.8315 253.735 72.6301 259.203 73.012 267.083C73.193 270.782 74.4393 273.657 76.8516 275.888C79.2438 278.14 82.0983 279.105 85.8374 278.924C89.6368 278.723 91.7877 277.879 93.999 275.667C96.4917 273.215 97.5571 270.3 97.537 266.018C97.537 261.696 96.4716 258.801 93.999 256.369C91.3254 253.735 87.9683 252.65 83.8071 253.052ZM87.3451 258.862C89.4357 259.827 90.662 262.54 90.662 266.159C90.662 270.863 88.3703 273.798 84.9127 273.516C82.7818 273.335 81.1937 271.848 80.3896 269.275C79.8067 267.405 79.9072 263.787 80.6108 262.018C81.1535 260.611 82.6411 259.002 83.6462 258.701C84.772 258.379 86.4606 258.46 87.3451 258.862Z" fill="black"/>
<path d="M113.88 253.052C111.709 253.394 110.322 254.479 109.277 256.67L108.654 257.977L108.594 255.605L108.533 253.253L105.277 253.293L102.02 253.354V265.918V278.482H105.437H108.855L108.895 270.782C108.955 263.425 108.975 263.043 109.378 262.098C109.86 260.992 111.046 259.806 112.132 259.344C112.936 259.002 115.991 258.962 116.574 259.264C116.896 259.445 116.956 259.364 117.077 258.54C117.137 258.037 117.197 256.63 117.197 255.444C117.197 253.333 117.177 253.253 116.755 253.173C115.649 252.951 114.825 252.911 113.88 253.052Z" fill="black"/>
<path d="M161.664 253.454C155.895 255.002 152.698 259.967 153.04 266.822C153.241 270.702 154.327 273.496 156.498 275.687C158.749 277.959 162.146 279.125 165.865 278.924C171.333 278.602 174.831 275.989 176.52 270.943C177.123 269.154 177.163 268.853 177.183 266.119C177.203 263.606 177.143 263.003 176.721 261.696C175.434 257.555 173.102 255.002 169.444 253.715C167.373 252.992 163.795 252.871 161.664 253.454ZM167.232 258.882C169.444 260.007 170.61 262.862 170.429 266.661C170.268 269.657 169.243 271.908 167.554 272.953C166.649 273.516 164.619 273.717 163.533 273.356C159.513 272.029 158.367 264.189 161.563 259.927C162.046 259.304 162.83 258.781 163.835 258.46C164.579 258.218 166.368 258.439 167.232 258.882Z" fill="black"/>
<path d="M193.486 253.333C191.596 253.796 190.25 254.781 189.164 256.469C188.802 257.032 188.44 257.475 188.34 257.475C188.239 257.475 188.159 256.57 188.159 255.464V253.454H184.942H181.726V265.918C181.726 272.773 181.746 278.381 181.786 278.381C181.806 278.381 183.334 278.441 185.204 278.522L188.561 278.642V270.843C188.561 262.179 188.641 261.596 189.868 260.209C191.657 258.198 194.994 258.178 196.743 260.148C197.929 261.495 197.969 261.957 197.989 271.164L198.009 278.522L201.326 278.562L204.643 278.582V269.998C204.643 264.993 204.542 260.852 204.422 260.088C203.738 255.826 200.381 253.012 196.059 253.072C195.195 253.072 194.049 253.193 193.486 253.333Z" fill="black"/>
<path d="M221.73 253.353C220.343 253.735 218.654 254.881 217.951 255.906C217.649 256.349 217.207 256.952 216.966 257.233L216.524 257.776L216.503 255.605V253.454H213.347H210.171V265.978L210.191 278.482L213.528 278.522L216.885 278.582L216.946 270.481L217.006 262.4L217.569 261.234C218.333 259.686 219.559 258.841 221.167 258.721C222.816 258.6 223.559 258.801 224.484 259.585C226.072 260.932 226.032 260.751 226.153 270.139L226.253 278.461H229.57L232.887 278.441V269.516C232.887 259.867 232.827 259.324 231.721 257.113C231.098 255.846 229.228 254.178 227.821 253.635C226.313 253.052 223.338 252.911 221.73 253.353Z" fill="black"/>
<path d="M246.255 253.374C242.516 254.178 239.46 257.032 238.093 260.992C237.611 262.38 237.51 263.003 237.45 265.355C237.35 268.732 237.691 270.581 238.797 272.853C240.867 277.054 245.089 279.245 250.577 278.924C253.994 278.723 256.447 277.778 258.256 275.969C259.261 274.984 260.367 273.094 260.628 271.928C260.749 271.426 260.709 271.385 259.784 271.285C259.261 271.225 257.874 271.104 256.708 271.024L254.597 270.903L254.215 271.627C253.452 273.054 252.024 273.757 249.853 273.757C246.536 273.757 244.546 271.928 243.943 268.37L243.802 267.526H252.406H260.99L260.869 265.154C260.668 261.053 259.683 258.46 257.512 256.248C256.005 254.72 254.316 253.816 252.185 253.354C250.436 252.992 247.984 252.992 246.255 253.374ZM251.281 258.52C252.909 259.123 254.497 261.254 254.497 262.842V263.505H249.25H243.983L244.104 262.601C244.325 261.093 245.451 259.404 246.697 258.761C247.923 258.118 249.954 258.017 251.281 258.52Z" fill="black"/>
<path d="M273.996 253.253C271.524 253.675 268.81 255.263 267.322 257.133C265.433 259.505 264.548 262.44 264.548 266.239C264.548 272.994 268.026 277.577 274.017 278.703C275.926 279.085 278.359 278.984 280.329 278.482C284.43 277.416 287.164 274.401 287.726 270.28L287.847 269.536H284.53C281.535 269.536 281.233 269.576 281.233 269.878C281.213 270.581 280.128 272.25 279.263 272.833C278.017 273.717 276.228 273.818 274.7 273.074C274.097 272.772 273.373 272.25 273.072 271.888C270.659 269.053 270.659 262.802 273.052 259.967C273.856 259.022 275.223 258.459 276.69 258.439C278.801 258.439 280.309 259.445 280.972 261.314L281.334 262.299H284.59H287.867L287.747 261.636C287.143 258.339 285.455 255.886 282.701 254.399C280.53 253.233 276.891 252.75 273.996 253.253Z" fill="black"/>
<path d="M28.3443 253.293C28.3242 253.333 28.3041 257.334 28.3041 262.199C28.284 271.687 28.3242 272.31 29.3092 274.26C30.3747 276.431 31.8623 277.677 34.2343 278.421C35.7219 278.884 38.2548 278.924 39.662 278.502C41.5918 277.919 43.4011 276.451 44.165 274.863C44.6072 273.938 44.8685 273.979 44.8283 274.903C44.8082 275.325 44.7881 276.331 44.8082 277.115L44.8283 278.582H48.0447H51.2611V265.918V253.253L47.8437 253.293L44.4263 253.353L44.366 261.193C44.3258 268.893 44.3057 269.054 43.8634 270.039C42.9588 271.988 41.5315 272.994 39.6017 272.994C37.6518 272.994 35.9431 271.747 35.4003 269.958C35.2596 269.435 35.1792 266.601 35.1792 261.214V253.253H31.7617C29.8922 253.253 28.3443 253.273 28.3443 253.293Z" fill="black"/>
</svg>
